<?xml version="1.0" ?><svg enable-background="new 0 0 32 32" version="1.1" viewBox="0 0 32 32" xml:space="preserve" xmlns="http://www.w3.org/2000/svg" xmlns:xlink="http://www.w3.org/1999/xlink"><g id="Flat_copy"><g><g><path d="M16.005,31.614c-8.615,0-15.625-7.01-15.625-15.625S7.39,0.364,16.005,0.364S31.63,7.374,31.63,15.989     S24.62,31.614,16.005,31.614z" fill="#FFFFFF"/><path d="M16.005,0.739c8.409,0,15.25,6.841,15.25,15.25s-6.841,15.25-15.25,15.25s-15.25-6.841-15.25-15.25     S7.596,0.739,16.005,0.739 M16.005-0.011c-8.837,0-16,7.163-16,16c0,8.836,7.163,16,16,16s16-7.164,16-16     C32.005,7.153,24.842-0.011,16.005-0.011L16.005-0.011z" fill="#E5E5E5"/></g></g><path d="M24.299,22.932v-6.137c0-3.288-1.755-4.818-4.096-4.818c-1.889,0-2.735,1.039-3.206,1.768v-1.517h-3.558   c0.047,1.005,0,10.704,0,10.704h3.558v-5.978c0-0.319,0.023-0.639,0.117-0.867c0.257-0.639,0.842-1.301,1.825-1.301   c1.288,0,1.803,0.981,1.803,2.42v5.727L24.299,22.932L24.299,22.932z M9.69,10.767c1.24,0,2.013-0.823,2.013-1.85   c-0.023-1.05-0.773-1.849-1.99-1.849S7.701,7.866,7.701,8.916c0,1.028,0.772,1.85,1.967,1.85H9.69z M11.469,22.932V12.228H7.912   v10.704H11.469z" fill="#333333"/></g></svg>