<?xml version="1.0" standalone="no"?>
<!DOCTYPE svg PUBLIC "-//W3C//DTD SVG 20010904//EN"
 "http://www.w3.org/TR/2001/REC-SVG-20010904/DTD/svg10.dtd">
<svg version="1.0" xmlns="http://www.w3.org/2000/svg"
 width="1080.000000pt" height="1080.000000pt" viewBox="0 0 1080.000000 1080.000000"
 preserveAspectRatio="xMidYMid meet">
<metadata>
Created by potrace 1.14, written by Peter Selinger 2001-2017
</metadata>
<g transform="translate(0.000000,1080.000000) scale(0.100000,-0.100000)"
fill="#000000" stroke="none">
<path d="M2390 8565 c-169 -35 -319 -122 -433 -254 -44 -51 -126 -206 -242
-456 -26 -57 -74 -159 -170 -360 -23 -49 -62 -130 -85 -180 -82 -173 -139
-292 -275 -580 -76 -159 -158 -333 -182 -385 -73 -154 -117 -248 -173 -365
-80 -167 -187 -394 -264 -560 -26 -55 -51 -108 -56 -117 -5 -9 -41 -83 -79
-165 -38 -81 -94 -200 -124 -263 -117 -247 -146 -309 -192 -405 -56 -119 -90
-211 -103 -282 -10 -55 -8 -216 2 -268 75 -362 371 -606 736 -607 201 -1 381
73 528 215 90 88 114 131 357 647 40 85 99 209 130 275 98 205 201 423 255
540 15 33 64 136 109 228 45 93 81 170 81 171 0 2 33 72 74 157 40 85 111 233
156 329 45 96 85 179 90 183 4 4 16 -14 28 -40 11 -26 53 -115 92 -198 40 -82
85 -177 100 -210 15 -33 51 -109 80 -170 29 -60 72 -150 95 -200 24 -49 69
-144 100 -210 32 -66 70 -147 85 -180 15 -33 52 -112 83 -175 127 -268 282
-596 356 -755 116 -248 154 -309 242 -395 57 -56 149 -126 149 -115 0 4 12 -2
28 -13 37 -27 173 -70 251 -81 102 -13 235 -1 321 31 30 11 64 22 75 25 43 13
173 105 232 165 143 147 216 329 215 538 -1 129 -25 212 -120 410 -35 74 -82
173 -104 220 -48 102 -111 234 -174 368 -26 53 -63 133 -84 177 -20 44 -58
123 -83 175 -48 102 -205 434 -267 565 -21 44 -70 147 -109 228 -39 82 -71
150 -71 152 0 1 -35 76 -78 166 -44 90 -90 189 -105 219 -14 30 -55 118 -92
195 -37 77 -78 165 -92 195 -14 30 -61 129 -104 219 -44 90 -79 165 -79 166 0
2 -30 65 -66 142 -37 76 -106 223 -155 326 -49 104 -105 213 -125 243 -72 109
-198 215 -315 267 -47 20 -80 31 -174 54 -47 11 -215 10 -275 -2z"/>
<path d="M6012 8184 c-308 -41 -557 -265 -642 -579 -18 -66 -19 -107 -16 -730
1 -363 5 -671 8 -685 4 -14 12 -65 19 -115 7 -49 13 -92 14 -95 1 -3 5 -25 9
-50 34 -197 133 -484 243 -704 203 -407 517 -769 896 -1035 248 -173 657 -359
877 -398 14 -2 43 -9 65 -15 22 -5 52 -12 68 -14 15 -2 31 -5 35 -8 4 -2 32
-7 62 -11 30 -4 66 -9 80 -11 140 -20 430 -26 590 -11 87 8 93 8 195 27 33 5
74 13 90 15 111 20 397 107 463 141 15 7 31 14 36 14 20 0 280 133 371 190
103 65 285 198 365 266 84 73 224 219 319 334 265 319 455 698 557 1114 13 55
27 117 30 136 3 19 7 42 9 50 2 8 7 42 11 75 3 33 8 69 10 80 17 84 26 1172
11 1331 -33 349 -328 655 -667 690 -123 12 -4013 10 -4108 -2z m3219 -1576 c2
-206 -4 -285 -33 -413 -80 -351 -314 -652 -622 -803 -82 -40 -183 -79 -223
-87 -15 -3 -57 -11 -93 -18 -95 -20 -268 -19 -378 4 -276 56 -533 240 -717
513 -95 142 -187 344 -209 457 -2 13 -9 44 -15 69 -14 61 -20 106 -27 228 l-7
102 1162 0 1161 0 1 -52z"/>
</g>
</svg>
